# xmcd
#
# Track frame offsets: 
#        150
#        21606
#        34898
#        48697
#        68159
#        88895
#        102019
#        122147
#        135805
#        157963
#        168521
#        181778
#        196104
#        207713
#        220440
#        233857
#        247507
#        260821
#        274791
#
# Disc length: 3825 seconds
#
# Revision: 0
# Processed by: cddbd v1.5.2PL0 Copyright (c) Steve Scherf et al.
# Submitted via: ExactAudioCopy v1.3
#
DISCID=140eef13
DTITLE=Muddy Waters - Muddy Waters Sings Big Bill
DYEAR=1959
DGENRE=Blues
TTITLE0=I Got My Brand On You
TTITLE1=(I´m Your) Hoochie Coochie Man
TTITLE2=Baby, Please Don´t Go
TTITLE3=Soon Forgotten
TTITLE4=Tiger In Your Tank
TTITLE5=I Feel So  Good
TTITLE6=I´ve Got My Mojo Working (Part 1)
TTITLE7=I´ve Got My Mojo Working (Part 2)
TTITLE8=Goodbye Newport Blues
TTITLE9=Tell Me Baby
TTITLE10=Southbound Train
TTITLE11=When I Get To Thinking
TTITLE12=Just A Dream (On My Mind)
TTITLE13=Double Trouble
TTITLE14=I Feel So Good
TTITLE15=Baby, I Done Got Wise
TTITLE16=Mopper´s Blues
TTITLE17=Lonesome Road Blues
TTITLE18=Hey, Hey
EXTD=
EXTT0=
EXTT1=
EXTT2=
EXTT3=
EXTT4=
EXTT5=
EXTT6=
EXTT7=
EXTT8=
EXTT9=
EXTT10=
EXTT11=
EXTT12=
EXTT13=
EXTT14=
EXTT15=
EXTT16=
EXTT17=
EXTT18=
PLAYORDER=
